/* XPM */
static char *Leva_b_on[] = {
"18 56 10 1 0 0",
"  c #8C8C8C",
"! c #4E4E4E",
"# c #A8A8A8",
"$ c #2D64FF",
"% c #646464",
"& c #000000",
"' c #222222",
"( c #F4F4F4",
") c #303030",
"* c None",
"   !!!!    !!!!   ",
"  !####!  !$$$$!  ",
" !######!!$$$$$$! ",
" !######!!$$$$$$! ",
" !######!!$$$$$$! ",
" !######!!$$$$$$! ",
"  !####!  !$$$$!  ",
"   !!!!    !!!!   ",
"                  ",
"##################",
"#####        #####",
"####          ####",
"###   !!!!!!   ###",
"###  !!!!!!!!  ###",
"###  !!!!!!!!  ###",
"###  !!!!!!!!  ###",
"###%%!!!!!!!!  ###",
"###  !!!!!!!!  ###",
"###  !!!!!!!!  ###",
"###  !!!!!!!!  ###",
"###  !!!!!!!!  ###",
"###  !!!!!!!!  ###",
"###  !!!!!!!!  ###",
"###  !!!!!!!!  ###",
"###  !!!!!!!!  ###",
"###  !!!!!!!!  ###",
"###  !!!!!!!!  ###",
"###  !!!!!!!!  ###",
"###  !!!!!!!!  ###",
"###  !!!!!!!!  ###",
"###  !!!!!!!!  ###",
"###  !!!!!!!!  ###",
"###  !!!!!!!!  ###",
"###  !!!!!!!!  ###",
"###  !!!!!!!!  ###",
"###  !!!!!!!!  ###",
"###  !!!!!!!!  ###",
"###  !!!!!!!!  ###",
"###  !!!!!!!!  ###",
"###  !!!!!!!!  ###",
"###  !&&&&&&!  ###",
"###  &&&&&&&&  ###",
"###  &&&&&&&&  ###",
"### &&&&&&&&&& ###",
"### &&''''''&& ###",
"###&&''''''''&&###",
"###''''''''''''###",
"##''''''''''''''##",
"##''''''''''''''##",
"##''''''''''''''##",
"##''''''''''''''##",
"##''''''''''''''##",
"##''''''((''''''##",
"###''''((((''''###",
"####''''(()'''####",
"######''''''######"
};
