/* XPM */
static char *Leva_b_off[] = {
"18 56 9 1 0 0",
"  c #8C8C8C",
"! c #4E4E4E",
"# c #F4F4F4",
"$ c #A8A8A8",
"% c #222222",
"& c #303030",
"' c #000000",
"( c #646464",
") c None",
"   !!!!    !!!!   ",
"  !####!  !$$$$!  ",
" !######!!$$$$$$! ",
" !######!!$$$$$$! ",
" !######!!$$$$$$! ",
" !######!!$$$$$$! ",
"  !####!  !$$$$!  ",
"   !!!!    !!!!   ",
"                  ",
"$$$$$$$$$$$$$$$$$$",
"$$$$$$%%%%%%$$$$$$",
"$$$$%%%%##&%%%$$$$",
"$$$%%%%####%%%%$$$",
"$$%%%%%%##%%%%%%$$",
"$$%%%%%%%%%%%%%%$$",
"$$%%%%%%%%%%%%%%$$",
"$$%%%%%%%%%%%%%%$$",
"$$%%%%%%%%%%%%%%$$",
"$$%%%%%%%%%%%%%%$$",
"$$$%%%%%%%%%%%%$$$",
"$$$''%%%%%%%%''$$$",
"$$$ ''%%%%%%'' $$$",
"$$$ '''''''''' $$$",
"$$$  ''''''''  $$$",
"$$$  ''''''''  $$$",
"$$$  !''''''!  $$$",
"$$$  !!!!!!!!  $$$",
"$$$  !!!!!!!!  $$$",
"$$$  !!!!!!!!  $$$",
"$$$  !!!!!!!!  $$$",
"$$$  !!!!!!!!  $$$",
"$$$  !!!!!!!!  $$$",
"$$$  !!!!!!!!  $$$",
"$$$  !!!!!!!!  $$$",
"$$$  !!!!!!!!  $$$",
"$$$  !!!!!!!!  $$$",
"$$$  !!!!!!!!  $$$",
"$$$  !!!!!!!!  $$$",
"$$$  !!!!!!!!  $$$",
"$$$  !!!!!!!!  $$$",
"$$$  !!!!!!!!  $$$",
"$$$  !!!!!!!!  $$$",
"$$$  !!!!!!!!  $$$",
"$$$  !!!!!!!!  $$$",
"$$$  !!!!!!!!  $$$",
"$$$  !!!!!!!!  $$$",
"$$$  !!!!!!!!  $$$",
"$$$  !!!!!!!!  $$$",
"$$$  !!!!!!!!  $$$",
"$$$  !!!!!!!!(($$$",
"$$$  !!!!!!!!  $$$",
"$$$  !!!!!!!!  $$$",
"$$$  !!!!!!!!  $$$",
"$$$   !!!!!!   $$$",
"$$$$          $$$$",
"$$$$$        $$$$$"
};
