/* XPM */
static char *Leva_y_on[] = {
"18 56 8 1 0 0",
"  c #8C8C8C",
"! c #4E4E4E",
"# c #F4F4F4",
"$ c #A8A8A8",
"% c #E6E600",
"& c #C8C800",
"' c #646464",
"( c None",
"   !!!!    !!!!   ",
"  !####!  !$$$$!  ",
" !######!!$$$$$$! ",
" !######!!$$$$$$! ",
" !######!!$$$$$$! ",
" !######!!$$$$$$! ",
"  !####!  !$$$$!  ",
"   !!!!    !!!!   ",
"                  ",
"$$$$$$$$$$$$$$$$$$",
"$$$$$$%%%%%%$$$$$$",
"$$$$%%%%##%%%%$$$$",
"$$$%%%%####%%%%$$$",
"$$%%%%%%##%%%%%%$$",
"$$%%%%%%%%%%%%%%$$",
"$$%%%%%%%%%%%%%%$$",
"$$%%%%%%%%%%%%%%$$",
"$$%%%%%%%%%%%%%%$$",
"$$%%%%%%%%%%%%%%$$",
"$$$%%%%%%%%%%%%$$$",
"$$$&&%%%%%%%%&&$$$",
"$$$ &&%%%%%%&& $$$",
"$$$ &&&&&&&&&& $$$",
"$$$  &&&&&&&&  $$$",
"$$$  &&&&&&&&  $$$",
"$$$  !&&&&&&!  $$$",
"$$$  !!!!!!!!  $$$",
"$$$  !!!!!!!!  $$$",
"$$$  !!!!!!!!  $$$",
"$$$  !!!!!!!!  $$$",
"$$$  !!!!!!!!  $$$",
"$$$  !!!!!!!!  $$$",
"$$$''!!!!!!!!  $$$",
"$$$  !!!!!!!!''$$$",
"$$$  !!!!!!!!  $$$",
"$$$  !!!!!!!!  $$$",
"$$$  !!!!!!!!  $$$",
"$$$  !!!!!!!!  $$$",
"$$$  !!!!!!!!  $$$",
"$$$  !!!!!!!!  $$$",
"$$$  !!!!!!!!  $$$",
"$$$  !!!!!!!!  $$$",
"$$$  !!!!!!!!  $$$",
"$$$  !!!!!!!!  $$$",
"$$$  !!!!!!!!  $$$",
"$$$  !!!!!!!!  $$$",
"$$$  !!!!!!!!  $$$",
"$$$  !!!!!!!!  $$$",
"$$$  !!!!!!!!  $$$",
"$$$  !!!!!!!!''$$$",
"$$$  !!!!!!!!  $$$",
"$$$  !!!!!!!!  $$$",
"$$$  !!!!!!!!  $$$",
"$$$   !!!!!!   $$$",
"$$$$          $$$$",
"$$$$$        $$$$$"
};
